<?xml version="1.0" encoding="iso-8859-1"?>
<!-- Generator: Adobe Illustrator 18.1.1, SVG Export Plug-In . SVG Version: 6.00 Build 0)  -->
<svg version="1.1" id="Capa_1" xmlns="http://www.w3.org/2000/svg" xmlns:xlink="http://www.w3.org/1999/xlink" x="0px" y="0px"
	 viewBox="0 0 59.033 59.033" style="enable-background:new 0 0 59.033 59.033;" xml:space="preserve">
<g>
	<g>
		<path style="fill:#010002;" d="M40.464,26.146c1.229-1.572,3.487-1.912,5.127-0.737c1.679,1.205,2.062,3.542,0.854,5.223
			c-0.057,0.082-0.121,0.159-0.188,0.237l0.531,0.379c3.621-5.047,2.539-12.069-2.36-15.975l0.356-0.495
			c0.197-0.277,0.134-0.664-0.143-0.864c-0.277-0.199-0.666-0.136-0.865,0.143l-0.354,0.496c-5.27-3.392-12.27-2.167-15.892,2.881
			l0.388,0.278c0.052-0.086,0.106-0.173,0.166-0.256c1.207-1.68,3.545-2.064,5.222-0.859c1.681,1.206,2.065,3.542,0.858,5.222
			c-0.059,0.084-0.127,0.163-0.19,0.238l0.157,0.111c0.052-0.086,0.104-0.172,0.164-0.255c1.206-1.68,3.544-2.064,5.223-0.858
			c0.062,0.045,0.124,0.098,0.184,0.146l-8.224,11.462c-0.728,1.016-2.146,1.248-3.16,0.521c-0.071-0.051-0.13-0.112-0.195-0.171
			c1.136-1.018,1.498-3.2-0.114-4.433c-2.299-1.759-4.281-3.795-6.005-6.053c1.154-1.797,1.266-4.038-0.41-5.691
			c-1.569-1.55-4.723-1.846-6.223,0.033c-1.093,1.37-2.057,2.674-2.896,3.961c-0.553-2.593-1.263-5.111-1.626-3.131
			c-0.648,3.532-4.528,2.283-4.528,2.283l3.617,4.176C7.129,25.94-1.037,31.897,0.11,40.288l10.548,0.943c0,3.282,0,6.564,0,9.846
			c0,3.338,5.177,3.338,5.177,0c0-3.127,0-6.254,0-9.383l5.854,0.521c0,0,0.334-9.123-3.15-13.85
			c0.167-0.432,0.354-0.857,0.554-1.276c1.866,2.182,3.959,4.161,6.307,5.958c0.649,0.497,1.293,0.601,1.859,0.445
			c0.151,0.168,0.317,0.322,0.508,0.459c1.439,1.033,3.449,0.701,4.481-0.737l8.121-11.313
			C41.256,23.132,41.334,24.822,40.464,26.146z"/>
		<circle style="fill:#010002;" cx="22.95" cy="10.369" r="4.917"/>
		<path style="fill:#010002;" d="M52.235,49.08c-1.557,1.156-2.502-0.733-2.502-0.733l-4.117-4.113
			c-0.166,0.019-0.332,0.033-0.494,0.033c-1.93,0-3.463-1.344-3.487-1.362l0.342-0.389c0.085,0.076,1.454,1.266,3.164,1.24
			L44.685,43.3c-0.716-6.661-5.694-4.399-5.694-4.399v1.295l-1.811,0.775c-3.236,0.646,0,2.329,0,2.329
			c3.959-0.456,3.88,3.882,3.88,3.882l-2.847,5.436h1.293l3.625-4.398c0,0-2.557,4.398,0.431,4.398s5.522,0,5.522,0
			C53.742,50.806,53.968,45.918,52.235,49.08z"/>
		<path style="fill:#010002;" d="M53.728,17.887c0.581,0.333,1.32,0.133,1.653-0.447c0.333-0.579-0.23-2.03-0.23-2.03
			s-1.537,0.246-1.869,0.826C52.95,16.815,53.149,17.556,53.728,17.887z"/>
		<path style="fill:#010002;" d="M48.36,15.029c0.58,0.333,1.318,0.133,1.651-0.447c0.333-0.579-0.229-2.03-0.229-2.03
			s-1.537,0.248-1.869,0.826C47.578,13.958,47.782,14.698,48.36,15.029z"/>
		<path style="fill:#010002;" d="M35.166,10.207c0.58,0.333,1.318,0.132,1.65-0.447c0.334-0.579-0.229-2.031-0.229-2.031
			s-1.537,0.247-1.872,0.826C34.387,9.136,34.587,9.875,35.166,10.207z"/>
		<path style="fill:#010002;" d="M51.362,23.578c0.582,0.332,1.32,0.132,1.653-0.448s-0.229-2.031-0.229-2.031
			s-1.535,0.247-1.869,0.826C50.584,22.505,50.784,23.245,51.362,23.578z"/>
		<path style="fill:#010002;" d="M58.7,19.781c0,0-1.539,0.245-1.871,0.826c-0.332,0.578-0.131,1.319,0.449,1.651
			s1.319,0.132,1.65-0.448C59.261,21.23,58.7,19.781,58.7,19.781z"/>
		<path style="fill:#010002;" d="M53.282,27.578c-0.332,0.58-0.133,1.32,0.446,1.651c0.581,0.333,1.32,0.132,1.653-0.446
			c0.333-0.58-0.229-2.031-0.229-2.031S53.614,26.999,53.282,27.578z"/>
		<path style="fill:#010002;" d="M57.744,11.08c0.332-0.58-0.229-2.031-0.229-2.031s-1.538,0.248-1.871,0.826
			c-0.331,0.58-0.13,1.32,0.449,1.652C56.676,11.861,57.412,11.66,57.744,11.08z"/>
		<path style="fill:#010002;" d="M51.364,10.208c0.58,0.333,1.319,0.132,1.652-0.447c0.333-0.58-0.229-2.032-0.229-2.032
			s-1.537,0.248-1.869,0.826C50.582,9.136,50.784,9.875,51.364,10.208z"/>
		<path style="fill:#010002;" d="M43.91,8.888c0.58,0.333,1.318,0.133,1.651-0.447s-0.229-2.032-0.229-2.032
			s-1.537,0.248-1.87,0.827C43.131,7.815,43.33,8.555,43.91,8.888z"/>
	</g>
</g>
<g>
</g>
<g>
</g>
<g>
</g>
<g>
</g>
<g>
</g>
<g>
</g>
<g>
</g>
<g>
</g>
<g>
</g>
<g>
</g>
<g>
</g>
<g>
</g>
<g>
</g>
<g>
</g>
<g>
</g>
</svg>
